<svg width="42" height="35" viewBox="0 0 42 35" fill="none" xmlns="http://www.w3.org/2000/svg">
<path d="M7 6.5C20.687 20.074 21.825 19.59 36 6.5" stroke="#F7C845" stroke-width="3" stroke-linecap="round" stroke-linejoin="round"/>
<path d="M38 2H5C3.89543 2 3 2.89543 3 4V31C3 32.1046 3.89543 33 5 33H38C39.1046 33 40 32.1046 40 31V4C40 2.89543 39.1046 2 38 2Z" stroke="#F7C845" stroke-width="3" stroke-linecap="round" stroke-linejoin="round"/>
<path d="M5 5.5C18.687 19.074 19.825 18.59 34 5.5" stroke="black" stroke-linecap="round" stroke-linejoin="round"/>
<path d="M36 1H3C1.89543 1 1 1.89543 1 3V30C1 31.1046 1.89543 32 3 32H36C37.1046 32 38 31.1046 38 30V3C38 1.89543 37.1046 1 36 1Z" stroke="black" stroke-linecap="round" stroke-linejoin="round"/>
</svg>
