<svg width="58" height="54" viewBox="0 0 58 54" fill="none" xmlns="http://www.w3.org/2000/svg">
<path d="M14.5059 52.1057C20.6275 52.1057 25.59 47.2005 25.59 41.1495C25.59 35.0986 20.6275 30.1934 14.5059 30.1934C8.38438 30.1934 3.42188 35.0986 3.42188 41.1495C3.42188 47.2005 8.38438 52.1057 14.5059 52.1057Z" stroke="#F7C845" stroke-width="3" stroke-linecap="round" stroke-linejoin="round"/>
<path d="M44.9171 52.1057C51.0386 52.1057 56.0011 47.2005 56.0011 41.1495C56.0011 35.0986 51.0386 30.1934 44.9171 30.1934C38.7955 30.1934 33.833 35.0986 33.833 41.1495C33.833 47.2005 38.7955 52.1057 44.9171 52.1057Z" stroke="#F7C845" stroke-width="3" stroke-linecap="round" stroke-linejoin="round"/>
<path d="M29.711 25.3342C35.8326 25.3342 40.7951 20.429 40.7951 14.378C40.7951 8.32712 35.8326 3.42188 29.711 3.42188C23.5895 3.42188 18.627 8.32712 18.627 14.378C18.627 20.429 23.5895 25.3342 29.711 25.3342Z" stroke="#F7C845" stroke-width="3" stroke-linecap="round" stroke-linejoin="round"/>
<path d="M12.0841 49.6838C18.2056 49.6838 23.1681 44.7786 23.1681 38.7277C23.1681 32.6767 18.2056 27.7715 12.0841 27.7715C5.9625 27.7715 1 32.6767 1 38.7277C1 44.7786 5.9625 49.6838 12.0841 49.6838Z" stroke="black" stroke-width="2" stroke-linecap="round" stroke-linejoin="round"/>
<path d="M42.4952 49.6838C48.6168 49.6838 53.5793 44.7786 53.5793 38.7277C53.5793 32.6767 48.6168 27.7715 42.4952 27.7715C36.3736 27.7715 31.4111 32.6767 31.4111 38.7277C31.4111 44.7786 36.3736 49.6838 42.4952 49.6838Z" stroke="black" stroke-width="2" stroke-linecap="round" stroke-linejoin="round"/>
<path d="M27.2891 22.9123C33.4107 22.9123 38.3732 18.0071 38.3732 11.9562C38.3732 5.90524 33.4107 1 27.2891 1C21.1676 1 16.2051 5.90524 16.2051 11.9562C16.2051 18.0071 21.1676 22.9123 27.2891 22.9123Z" stroke="black" stroke-width="2" stroke-linecap="round" stroke-linejoin="round"/>
</svg>
