<svg width="44" height="62" viewBox="0 0 44 62" fill="none" xmlns="http://www.w3.org/2000/svg">
<path d="M22.3538 2.70898C17.1553 2.74739 12.1805 4.83293 8.50451 8.51499C4.82848 12.197 2.74635 17.1799 2.70801 22.387C2.70801 34.1263 13.4319 38.6313 13.4319 44.7504V46.526H31.2758V44.7504C31.2758 38.6606 41.9997 34.185 41.9997 22.387C41.9613 17.1799 39.8792 12.197 36.2032 8.51499C32.5271 4.83293 27.5524 2.74739 22.3538 2.70898V2.70898ZM13.4319 46.526V53.2321H31.2758V46.526H13.4319ZM13.4319 53.2321V59.9382H31.2758V53.2321H13.4319Z" stroke="#F7C845" stroke-width="3" stroke-linejoin="round"/>
<path d="M20.6458 1C15.4473 1.0384 10.4725 3.12395 6.7965 6.806C3.12047 10.4881 1.03834 15.471 1 20.678C1 32.4173 11.7239 36.9223 11.7239 43.0414V44.817H29.5678V43.0414C29.5678 36.9517 40.2917 32.476 40.2917 20.678C40.2533 15.471 38.1712 10.4881 34.4952 6.806C30.8191 3.12395 25.8444 1.0384 20.6458 1V1ZM11.7239 44.817V51.5231H29.5678V44.817H11.7239ZM11.7239 51.5231V58.2292H29.5678V51.5231H11.7239Z" stroke="black" stroke-width="2" stroke-linejoin="round"/>
</svg>
