<svg width="31" height="35" viewBox="0 0 31 35" fill="none" xmlns="http://www.w3.org/2000/svg">
<path d="M1.94278 12.4265L20.2614 28.309M2.23386 4.94639L25.8757 20.6976L1.79883 10.8034M28.3118 14.9647L12.9775 2.96582" stroke="#F7C845" stroke-width="3" stroke-linecap="round" stroke-linejoin="round"/>
<path d="M15.3955 32.6385C19.9902 29.5253 29 19.6351 29 10.278C29 5.99892 28.0508 2.28141 27.8531 2.28141C27.3864 2.28141 26.4689 4.31418 23.1073 4.31418C18.8994 4.31418 16.2339 1.79102 15.3955 1.79102C14.5571 1.79102 11.8915 4.31418 7.68361 4.31418C4.32203 4.31418 3.40451 2.28141 2.93785 2.28141C2.74011 2.28141 1.79095 5.99892 1.79095 10.278C1.79095 19.6351 10.8016 29.5253 15.3955 32.6385Z" stroke="#F7C845" stroke-width="3" stroke-linecap="round" stroke-linejoin="round"/>
<path d="M1.15189 11.6365L19.4705 27.5189M1.44296 4.15635L25.0848 19.9075L1.00793 10.0134M27.5209 14.1747L12.1866 2.17578" stroke="black" stroke-linecap="round" stroke-linejoin="round"/>
<path d="M14.6045 31.8475C19.1992 28.7342 28.209 18.8441 28.209 9.48701C28.209 5.20791 27.2599 1.4904 27.0621 1.4904C26.5955 1.4904 25.678 3.52316 22.3164 3.52316C18.1085 3.52316 15.4429 1 14.6045 1C13.7661 1 11.1006 3.52316 6.89266 3.52316C3.53107 3.52316 2.61356 1.4904 2.14689 1.4904C1.94915 1.4904 1 5.20791 1 9.48701C1 18.8441 10.0106 28.7342 14.6045 31.8475Z" stroke="black" stroke-linecap="round" stroke-linejoin="round"/>
</svg>
