<svg width="30" height="37" viewBox="0 0 30 37" fill="none" xmlns="http://www.w3.org/2000/svg">
<path d="M9.07971 30.0691C10.0216 30.0691 10.7852 29.3055 10.7852 28.3637C10.7852 27.4218 10.0216 26.6582 9.07971 26.6582C8.13782 26.6582 7.37427 27.4218 7.37427 28.3637C7.37427 29.3055 8.13782 30.0691 9.07971 30.0691Z" stroke="#F7C845" stroke-width="3" stroke-linecap="round" stroke-linejoin="round"/>
<path d="M5.33936 6.58105H24.5214V10.4901H5.33936V6.58105Z" stroke="#F7C845" stroke-width="3" stroke-linecap="round" stroke-linejoin="round"/>
<path d="M21.6173 1.9541H8.24389C6.5466 1.9541 4.91882 2.62835 3.71866 3.82852C2.51849 5.02868 1.84424 6.65646 1.84424 8.35375V24.3951C1.84353 24.8165 1.948 25.2315 2.14818 25.6024L6.18385 33.2009C6.45649 33.7117 6.86296 34.1387 7.3597 34.4362C7.85645 34.7336 8.42475 34.8903 9.00374 34.8895H20.8406C21.4196 34.8903 21.9879 34.7336 22.4846 34.4362C22.9813 34.1387 23.3878 33.7117 23.6605 33.2009L27.6961 25.6024C27.8963 25.2315 28.0008 24.8165 28.0001 24.3951V8.35375C28.0001 6.65938 27.3281 5.03416 26.1316 3.83447C24.9351 2.63479 23.3117 1.95857 21.6173 1.9541V1.9541Z" stroke="#F7C845" stroke-width="3" stroke-linecap="round" stroke-linejoin="round"/>
<path d="M20.7811 30.0691C21.723 30.0691 22.4866 29.3055 22.4866 28.3637C22.4866 27.4218 21.723 26.6582 20.7811 26.6582C19.8392 26.6582 19.0757 27.4218 19.0757 28.3637C19.0757 29.3055 19.8392 30.0691 20.7811 30.0691Z" stroke="#F7C845" stroke-width="3" stroke-linecap="round" stroke-linejoin="round"/>
<path d="M24.5214 10.4893V18.7294L21.4736 22.6638H8.38721L5.33936 18.7294V10.4893H24.5214V10.4893Z" stroke="#F7C845" stroke-width="3" stroke-linecap="round" stroke-linejoin="round"/>
<path d="M8.23548 29.2234C9.17737 29.2234 9.94092 28.4598 9.94092 27.5179C9.94092 26.5761 9.17737 25.8125 8.23548 25.8125C7.29358 25.8125 6.53003 26.5761 6.53003 27.5179C6.53003 28.4598 7.29358 29.2234 8.23548 29.2234Z" stroke="black" stroke-linecap="round" stroke-linejoin="round"/>
<path d="M4.49536 5.73633H23.6774V9.64535H4.49536V5.73633Z" stroke="black" stroke-linecap="round" stroke-linejoin="round"/>
<path d="M20.7731 1.10938H7.39965C5.70236 1.10938 4.07458 1.78362 2.87442 2.98379C1.67425 4.18396 1 5.81173 1 7.50902V23.5504C0.999291 23.9718 1.10376 24.3868 1.30394 24.7577L5.33961 32.3562C5.61225 32.867 6.01872 33.294 6.51546 33.5914C7.01221 33.8889 7.58051 34.0456 8.1595 34.0448H19.9963C20.5753 34.0456 21.1436 33.8889 21.6404 33.5914C22.1371 33.294 22.5436 32.867 22.8162 32.3562L26.8519 24.7577C27.0521 24.3868 27.1565 23.9718 27.1558 23.5504V7.50902C27.1558 5.81465 26.4839 4.18943 25.2874 2.98975C24.0909 1.79007 22.4674 1.11385 20.7731 1.10938V1.10938Z" stroke="black" stroke-linecap="round" stroke-linejoin="round"/>
<path d="M19.9374 29.2234C20.8793 29.2234 21.6428 28.4598 21.6428 27.5179C21.6428 26.5761 20.8793 25.8125 19.9374 25.8125C18.9955 25.8125 18.2319 26.5761 18.2319 27.5179C18.2319 28.4598 18.9955 29.2234 19.9374 29.2234Z" stroke="black" stroke-linecap="round" stroke-linejoin="round"/>
<path d="M23.6774 9.64453V17.8847L20.6296 21.8191H7.54322L4.49536 17.8847V9.64453H23.6774V9.64453Z" stroke="black" stroke-linecap="round" stroke-linejoin="round"/>
</svg>
