<svg width="39" height="37" viewBox="0 0 39 37" fill="none" xmlns="http://www.w3.org/2000/svg">
<path d="M12.3052 27.131C12.4989 28.041 12.7435 28.9395 13.0376 29.8222C13.3211 30.6283 13.7066 31.395 14.1845 32.1034C14.6219 32.7548 15.1578 33.3342 15.7731 33.821C16.3392 34.2716 16.9806 34.6184 17.6677 34.8451C18.2287 34.9997 18.809 35.0727 19.3908 35.0619M18.0904 14.849C19.0178 16.4701 18.0082 19.5604 16.7899 21.8543C15.8529 23.7832 14.4032 25.4172 12.5996 26.5774C11.1686 27.4499 9.5114 27.8795 7.83673 27.8119C6.37035 27.7844 4.95461 27.2707 3.81168 26.3516C2.75495 25.4107 2.09273 24.1053 1.95764 22.6968C1.76084 21.0471 2.09826 19.3777 2.92033 17.934C3.86206 16.356 5.2141 15.0629 6.8325 14.1925C8.46999 13.4035 10.2782 13.0348 12.0939 13.1196C14.2965 13.0799 17.1629 13.2289 18.0904 14.8499V14.849ZM20.9333 14.8418C20.0058 16.4619 21.0155 19.5532 22.2337 21.847C23.1708 23.776 24.6204 25.41 26.424 26.5702C27.8551 27.4427 29.5123 27.8722 31.1869 27.8047C32.6537 27.7771 34.0698 27.2631 35.2129 26.3435C36.2693 25.4024 36.9312 24.097 37.066 22.6887C37.2628 21.039 36.9254 19.3696 36.1033 17.9258C35.1615 16.3481 33.8095 15.0554 32.1912 14.1852C30.5538 13.3959 28.7455 13.0269 26.9298 13.1115C24.7281 13.0717 21.8617 13.2217 20.9333 14.8418V14.8418Z" stroke="#F7C845" stroke-width="3" stroke-linecap="round" stroke-linejoin="round"/>
<path d="M26.4765 27.131C26.2831 28.041 26.0389 28.9395 25.745 29.8222C25.4609 30.6285 25.0749 31.3951 24.5963 32.1034C24.1593 32.7548 23.6237 33.3342 23.0087 33.8211C22.4428 34.2716 21.8017 34.6183 21.1149 34.8452C20.5533 34.9999 19.9724 35.0729 19.39 35.0619M12.3053 27.131H26.4765M13.5236 30.7948H25.233M16.2572 23.2532H22.7838M15.0155 13.0871C14.3829 12.1366 13.8307 11.1349 13.3646 10.0925C13.0864 9.38965 13.0567 8.61279 13.2806 7.89078C13.481 6.92943 13.9111 6.03086 14.5341 5.27183C15.3551 4.38419 16.4223 3.76188 17.5992 3.48462C18.8493 3.18899 20.1529 3.20605 21.3949 3.53429C22.5357 3.8002 23.5729 4.39638 24.3768 5.24835C24.992 6.0166 25.4204 6.91711 25.6285 7.87904C25.8797 8.61236 25.8826 9.40797 25.6367 10.1431C25.2035 11.1634 24.668 12.1371 24.0382 13.0492M15.6323 3.99667L13.5705 1.90332M23.2868 4.03731L25.3486 1.94396" stroke="#F7C845" stroke-width="3" stroke-linecap="round" stroke-linejoin="round"/>
<path d="M11.4021 26.2277C11.5959 27.1377 11.8404 28.0362 12.1345 28.9189C12.4181 29.725 12.8035 30.4916 13.2814 31.2001C13.7188 31.8514 14.2547 32.4309 14.87 32.9177C15.4361 33.3683 16.0776 33.7151 16.7647 33.9418C17.3256 34.0964 17.906 34.1694 18.4877 34.1586M17.1873 13.9457C18.1148 15.5667 17.1051 18.6571 15.8869 20.9509C14.9498 22.8799 13.5001 24.5139 11.6965 25.6741C10.2655 26.5466 8.60832 26.9761 6.93366 26.9086C5.46727 26.881 4.05153 26.3674 2.9086 25.4483C1.85188 24.5074 1.18965 23.202 1.05457 21.7935C0.857764 20.1438 1.19518 18.4744 2.01726 17.0306C2.95898 15.4526 4.31102 14.1596 5.92943 13.2892C7.56692 12.5002 9.37513 12.1315 11.1908 12.2163C13.3934 12.1765 16.2598 12.3256 17.1873 13.9466V13.9457ZM20.0302 13.9385C19.1027 15.5586 20.1124 18.6499 21.3307 20.9437C22.2677 22.8727 23.7174 24.5067 25.521 25.6668C26.952 26.5394 28.6092 26.9689 30.2839 26.9014C31.7507 26.8738 33.1668 26.3598 34.3098 25.4402C35.3662 24.4991 36.0281 23.1937 36.1629 21.7854C36.3597 20.1357 36.0223 18.4663 35.2003 17.0225C34.2584 15.4448 32.9064 14.1521 31.2881 13.2819C29.6507 12.4926 27.8425 12.1235 26.0267 12.2082C23.825 12.1684 20.9586 12.3183 20.0302 13.9385V13.9385Z" stroke="black" stroke-linecap="round" stroke-linejoin="round"/>
<path d="M25.5733 26.2277C25.3799 27.1377 25.1357 28.0362 24.8418 28.9189C24.5577 29.7252 24.1717 30.4918 23.6931 31.2001C23.2561 31.8514 22.7205 32.4309 22.1055 32.9178C21.5396 33.3683 20.8985 33.715 20.2117 33.9419C19.6501 34.0966 19.0692 34.1696 18.4868 34.1586M11.4021 26.2277H25.5733M12.6204 29.8915H24.3298M15.354 22.3499H21.8806M14.1123 12.1838C13.4797 11.2332 12.9275 10.2316 12.4614 9.18918C12.1832 8.48633 12.1535 7.70947 12.3774 6.98746C12.5778 6.02611 13.0079 5.12754 13.6309 4.36851C14.4519 3.48087 15.5191 2.85856 16.696 2.5813C17.9461 2.28567 19.2497 2.30273 20.4917 2.63097C21.6325 2.89688 22.6697 3.49306 23.4736 4.34503C24.0888 5.11328 24.5172 6.01379 24.7253 6.97572C24.9765 7.70904 24.9794 8.50465 24.7335 9.23976C24.3003 10.2601 23.7648 11.2338 23.135 12.1459M14.7291 3.09335L12.6673 1M22.3836 3.13399L24.4454 1.04064" stroke="black" stroke-linecap="round" stroke-linejoin="round"/>
</svg>
