<svg width="35" height="33" viewBox="0 0 35 33" fill="none" xmlns="http://www.w3.org/2000/svg">
<path d="M4.54314 10.3184H29.8791C30.6235 10.3184 31.3375 10.6141 31.8639 11.1405C32.3903 11.6669 32.6861 12.3809 32.6861 13.1254V28.1928C32.6861 28.9375 32.3903 29.6516 31.8637 30.1782C31.3371 30.7048 30.623 31.0006 29.8783 31.0006H4.54234C4.17372 31.0006 3.80871 30.928 3.46815 30.7869C3.12759 30.6458 2.81815 30.4391 2.5575 30.1784C2.03109 29.652 1.73535 28.9381 1.73535 28.1936V13.1269C1.73535 12.3823 2.03117 11.6681 2.55773 11.1415C3.0843 10.615 3.79847 10.3192 4.54314 10.3192V10.3184Z" stroke="#F7C845" stroke-width="3" stroke-linecap="round" stroke-linejoin="round"/>
<path d="M17.2106 14.3452C17.2106 13.441 16.4776 12.708 15.5734 12.708C14.6692 12.708 13.9362 13.441 13.9362 14.3452V14.346C13.9362 15.2502 14.6692 15.9832 15.5734 15.9832C16.4776 15.9832 17.2106 15.2502 17.2106 14.346V14.3452Z" stroke="#F7C845" stroke-width="3" stroke-linecap="round" stroke-linejoin="round"/>
<path d="M15.5391 7.04128C15.5391 6.35219 15.6749 5.66985 15.9386 5.03321C16.2023 4.39658 16.5888 3.81812 17.076 3.33085C17.5633 2.84359 18.1418 2.45708 18.7784 2.19337C19.415 1.92967 20.0974 1.79395 20.7865 1.79395C21.4756 1.79395 22.1579 1.92967 22.7945 2.19337C23.4312 2.45708 24.0096 2.84359 24.4969 3.33085C24.9842 3.81812 25.3707 4.39658 25.6344 5.03321C25.8981 5.66985 26.0338 6.35219 26.0338 7.04128M15.5391 7.04128V10.3348M26.0338 7.04128V10.1467M8.18794 7.50316C8.18748 6.54073 8.45172 5.59672 8.95176 4.77439C9.4518 3.95205 10.1684 3.28308 11.0231 2.84065C11.8778 2.39822 12.8377 2.19938 13.7978 2.26588C14.758 2.33237 15.6813 2.66165 16.4669 3.21768M8.18794 7.50316V10.0919M4.61591 14.6837C4.61591 14.4687 4.65825 14.2558 4.74053 14.0572C4.82281 13.8586 4.94341 13.6781 5.09543 13.526C5.24746 13.374 5.42795 13.2534 5.62659 13.1711C5.82522 13.0889 6.03812 13.0465 6.25312 13.0465C6.46812 13.0465 6.68102 13.0889 6.87965 13.1711C7.07829 13.2534 7.25878 13.374 7.4108 13.526C7.56283 13.6781 7.68343 13.8586 7.76571 14.0572C7.84799 14.2558 7.89033 14.4687 7.89033 14.6837M7.88954 26.5061C7.88954 26.7211 7.84719 26.934 7.76491 27.1326C7.68264 27.3313 7.56204 27.5118 7.41001 27.6638C7.25798 27.8158 7.0775 27.9364 6.87886 28.0187C6.68022 28.101 6.46733 28.1433 6.25233 28.1433C6.03732 28.1433 5.82443 28.101 5.62579 28.0187C5.42716 27.9364 5.24667 27.8158 5.09464 27.6638C4.94261 27.5118 4.82202 27.3313 4.73974 27.1326C4.65746 26.934 4.61511 26.7211 4.61511 26.5061M7.88954 26.5061V14.6821M4.61591 14.6837V26.5069M26.2314 12.7084C26.6656 12.7084 27.0821 12.8809 27.3891 13.188C27.6961 13.495 27.8686 13.9114 27.8686 14.3457V14.3457C27.8687 14.5607 27.8265 14.7737 27.7442 14.9724C27.662 15.1712 27.5414 15.3517 27.3894 15.5039C27.2373 15.656 27.0568 15.7766 26.8581 15.859C26.6594 15.9413 26.4465 15.9837 26.2314 15.9837V15.9837C26.0163 15.9837 25.8034 15.9413 25.6047 15.859C25.406 15.7766 25.2255 15.656 25.0734 15.5039C24.9214 15.3517 24.8008 15.1712 24.7186 14.9724C24.6364 14.7737 24.5941 14.5607 24.5942 14.3457V14.3457C24.5942 13.9114 24.7667 13.495 25.0737 13.188C25.3808 12.8809 25.7972 12.7084 26.2314 12.7084Z" stroke="#F7C845" stroke-width="3" stroke-linecap="round" stroke-linejoin="round"/>
<path d="M3.74968 9.52441H29.0856C29.8301 9.52441 30.5441 9.82015 31.0705 10.3466C31.5969 10.873 31.8926 11.5869 31.8926 12.3314V27.3989C31.8926 28.1435 31.5968 28.8577 31.0702 29.3843C30.5437 29.9108 29.8295 30.2066 29.0848 30.2066H3.74889C3.38027 30.2066 3.01526 30.134 2.6747 29.993C2.33414 29.8519 2.0247 29.6451 1.76404 29.3845C1.23763 28.8581 0.941895 28.1441 0.941895 27.3996V12.333C0.941895 11.5883 1.23771 10.8742 1.76428 10.3476C2.29084 9.82103 3.00501 9.52521 3.74968 9.52521V9.52441Z" stroke="black" stroke-linecap="round" stroke-linejoin="round"/>
<path d="M16.4171 13.5513C16.4171 12.6471 15.6841 11.9141 14.7799 11.9141C13.8757 11.9141 13.1427 12.6471 13.1427 13.5513V13.5521C13.1427 14.4563 13.8757 15.1893 14.7799 15.1893C15.6841 15.1893 16.4171 14.4563 16.4171 13.5521V13.5513Z" stroke="black" stroke-linecap="round" stroke-linejoin="round"/>
<path d="M14.7456 6.24734C14.7456 5.55825 14.8813 4.8759 15.145 4.23927C15.4087 3.60263 15.7952 3.02417 16.2825 2.53691C16.7697 2.04965 17.3482 1.66313 17.9848 1.39943C18.6215 1.13573 19.3038 1 19.9929 1C20.682 1 21.3643 1.13573 22.001 1.39943C22.6376 1.66313 23.2161 2.04965 23.7033 2.53691C24.1906 3.02417 24.5771 3.60263 24.8408 4.23927C25.1045 4.8759 25.2402 5.55825 25.2402 6.24734M14.7456 6.24734V9.54081M25.2402 6.24734V9.35273M7.39436 6.70922C7.3939 5.74679 7.65814 4.80277 8.15818 3.98044C8.65822 3.15811 9.37478 2.48913 10.2295 2.04671C11.0842 1.60428 12.0441 1.40543 13.0042 1.47193C13.9644 1.53843 14.8877 1.8677 15.6733 2.42373M7.39436 6.70922V9.29797M3.82233 13.8898C3.82233 13.6748 3.86468 13.4619 3.94695 13.2632C4.02923 13.0646 4.14983 12.8841 4.30186 12.7321C4.45389 12.5801 4.63437 12.4595 4.83301 12.3772C5.03164 12.2949 5.24454 12.2526 5.45954 12.2526C5.67454 12.2526 5.88744 12.2949 6.08608 12.3772C6.28471 12.4595 6.4652 12.5801 6.61723 12.7321C6.76926 12.8841 6.88985 13.0646 6.97213 13.2632C7.05441 13.4619 7.09675 13.6748 7.09675 13.8898M7.09596 25.7122C7.09596 25.9272 7.05361 26.1401 6.97134 26.3387C6.88906 26.5373 6.76846 26.7178 6.61643 26.8699C6.4644 27.0219 6.28392 27.1425 6.08528 27.2248C5.88665 27.307 5.67375 27.3494 5.45875 27.3494C5.24375 27.3494 5.03085 27.307 4.83221 27.2248C4.63358 27.1425 4.45309 27.0219 4.30106 26.8699C4.14903 26.7178 4.02844 26.5373 3.94616 26.3387C3.86388 26.1401 3.82153 25.9272 3.82153 25.7122M7.09596 25.7122V13.8882M3.82233 13.8898V25.713M25.4378 11.9145C25.8721 11.9145 26.2885 12.087 26.5955 12.394C26.9026 12.7011 27.075 13.1175 27.075 13.5517V13.5517C27.0752 13.7668 27.0329 13.9798 26.9507 14.1785C26.8684 14.3772 26.7478 14.5578 26.5958 14.7099C26.4438 14.862 26.2632 14.9827 26.0646 15.065C25.8659 15.1473 25.6529 15.1897 25.4378 15.1897V15.1897C25.2228 15.1897 25.0098 15.1473 24.8111 15.065C24.6124 14.9827 24.4319 14.862 24.2799 14.7099C24.1278 14.5578 24.0073 14.3772 23.925 14.1785C23.8428 13.9798 23.8005 13.7668 23.8006 13.5517V13.5517C23.8006 13.1175 23.9731 12.7011 24.2801 12.394C24.5872 12.087 25.0036 11.9145 25.4378 11.9145Z" stroke="black" stroke-linecap="round" stroke-linejoin="round"/>
</svg>
