<svg width="39" height="38" viewBox="0 0 39 38" fill="none" xmlns="http://www.w3.org/2000/svg">
<path d="M30.552 13.7785C32.341 13.7785 33.7914 12.3282 33.7914 10.5392C33.7914 8.75012 32.341 7.2998 30.552 7.2998C28.7629 7.2998 27.3126 8.75012 27.3126 10.5392C27.3126 12.3282 28.7629 13.7785 30.552 13.7785Z" stroke="#F7C845" stroke-width="3" stroke-linecap="round" stroke-linejoin="round"/>
<path d="M33.366 26.1106C35.155 26.1106 36.6053 24.6603 36.6053 22.8712C36.6053 21.0822 35.155 19.6318 33.366 19.6318C31.5769 19.6318 30.1266 21.0822 30.1266 22.8712C30.1266 24.6603 31.5769 26.1106 33.366 26.1106Z" stroke="#F7C845" stroke-width="3" stroke-linecap="round" stroke-linejoin="round"/>
<path d="M25.4798 36.0002C27.2689 36.0002 28.7192 34.5499 28.7192 32.7609C28.7192 30.9718 27.2689 29.5215 25.4798 29.5215C23.6908 29.5215 22.2405 30.9718 22.2405 32.7609C22.2405 34.5499 23.6908 36.0002 25.4798 36.0002Z" stroke="#F7C845" stroke-width="3" stroke-linecap="round" stroke-linejoin="round"/>
<path d="M12.8308 36.0002C14.6199 36.0002 16.0702 34.5499 16.0702 32.7609C16.0702 30.9718 14.6199 29.5215 12.8308 29.5215C11.0417 29.5215 9.59143 30.9718 9.59143 32.7609C9.59143 34.5499 11.0417 36.0002 12.8308 36.0002Z" stroke="#F7C845" stroke-width="3" stroke-linecap="round" stroke-linejoin="round"/>
<path d="M4.94469 26.1106C6.73375 26.1106 8.18406 24.6603 8.18406 22.8712C8.18406 21.0822 6.73375 19.6318 4.94469 19.6318C3.15564 19.6318 1.70532 21.0822 1.70532 22.8712C1.70532 24.6603 3.15564 26.1106 4.94469 26.1106Z" stroke="#F7C845" stroke-width="3" stroke-linecap="round" stroke-linejoin="round"/>
<path d="M7.75878 13.7785C9.54783 13.7785 10.9981 12.3282 10.9981 10.5392C10.9981 8.75012 9.54783 7.2998 7.75878 7.2998C5.96972 7.2998 4.51941 8.75012 4.51941 10.5392C4.51941 12.3282 5.96972 13.7785 7.75878 13.7785Z" stroke="#F7C845" stroke-width="3" stroke-linecap="round" stroke-linejoin="round"/>
<path d="M19.1554 8.29026C20.9444 8.29026 22.3948 6.83995 22.3948 5.05089C22.3948 3.26184 20.9444 1.81152 19.1554 1.81152C17.3663 1.81152 15.916 3.26184 15.916 5.05089C15.916 6.83995 17.3663 8.29026 19.1554 8.29026Z" stroke="#F7C845" stroke-width="3" stroke-linecap="round" stroke-linejoin="round"/>
<path d="M29.7405 12.967C31.5295 12.967 32.9798 11.5167 32.9798 9.72765C32.9798 7.9386 31.5295 6.48828 29.7405 6.48828C27.9514 6.48828 26.5011 7.9386 26.5011 9.72765C26.5011 11.5167 27.9514 12.967 29.7405 12.967Z" stroke="black" stroke-linecap="round" stroke-linejoin="round"/>
<path d="M32.5544 25.2991C34.3435 25.2991 35.7938 23.8487 35.7938 22.0597C35.7938 20.2706 34.3435 18.8203 32.5544 18.8203C30.7654 18.8203 29.3151 20.2706 29.3151 22.0597C29.3151 23.8487 30.7654 25.2991 32.5544 25.2991Z" stroke="black" stroke-linecap="round" stroke-linejoin="round"/>
<path d="M24.6681 35.1887C26.4571 35.1887 27.9075 33.7384 27.9075 31.9493C27.9075 30.1603 26.4571 28.71 24.6681 28.71C22.879 28.71 21.4287 30.1603 21.4287 31.9493C21.4287 33.7384 22.879 35.1887 24.6681 35.1887Z" stroke="black" stroke-linecap="round" stroke-linejoin="round"/>
<path d="M12.019 35.1887C13.8081 35.1887 15.2584 33.7384 15.2584 31.9493C15.2584 30.1603 13.8081 28.71 12.019 28.71C10.23 28.71 8.77966 30.1603 8.77966 31.9493C8.77966 33.7384 10.23 35.1887 12.019 35.1887Z" stroke="black" stroke-linecap="round" stroke-linejoin="round"/>
<path d="M4.13292 25.2991C5.92198 25.2991 7.37229 23.8487 7.37229 22.0597C7.37229 20.2706 5.92198 18.8203 4.13292 18.8203C2.34387 18.8203 0.893555 20.2706 0.893555 22.0597C0.893555 23.8487 2.34387 25.2991 4.13292 25.2991Z" stroke="black" stroke-linecap="round" stroke-linejoin="round"/>
<path d="M6.94701 12.967C8.73607 12.967 10.1864 11.5167 10.1864 9.72765C10.1864 7.9386 8.73607 6.48828 6.94701 6.48828C5.15796 6.48828 3.70764 7.9386 3.70764 9.72765C3.70764 11.5167 5.15796 12.967 6.94701 12.967Z" stroke="black" stroke-linecap="round" stroke-linejoin="round"/>
<path d="M18.3436 7.47874C20.1327 7.47874 21.583 6.02842 21.583 4.23937C21.583 2.45032 20.1327 1 18.3436 1C16.5546 1 15.1042 2.45032 15.1042 4.23937C15.1042 6.02842 16.5546 7.47874 18.3436 7.47874Z" stroke="black" stroke-linecap="round" stroke-linejoin="round"/>
</svg>
