<svg width="39" height="32" viewBox="0 0 39 32" fill="none" xmlns="http://www.w3.org/2000/svg">
<path d="M19.45 19.7384L37 10.3514L19.45 1.90039L1.90002 10.3514L19.45 19.7384Z" stroke="#F7C845" stroke-width="3" stroke-linecap="round" stroke-linejoin="round"/>
<path d="M7.18315 13.1777L1.90015 15.7157L19.4501 25.1027L37.0001 15.7157L31.7171 13.1777" stroke="#F7C845" stroke-width="3" stroke-linecap="round" stroke-linejoin="round"/>
<path d="M7.18315 18.541L1.90015 21.079L19.4501 30.466L37.0001 21.079L31.7171 18.541" stroke="#F7C845" stroke-width="3" stroke-linecap="round" stroke-linejoin="round"/>
<path d="M18.55 18.838L36.1 9.451L18.55 1L1 9.451L18.55 18.838Z" stroke="black" stroke-linecap="round" stroke-linejoin="round"/>
<path d="M6.283 12.2773L1 14.8153L18.55 24.2023L36.1 14.8153L30.817 12.2773" stroke="black" stroke-linecap="round" stroke-linejoin="round"/>
<path d="M6.283 17.6406L1 20.1786L18.55 29.5656L36.1 20.1786L30.817 17.6406" stroke="black" stroke-linecap="round" stroke-linejoin="round"/>
</svg>
