<svg width="39" height="26" viewBox="0 0 39 26" fill="none" xmlns="http://www.w3.org/2000/svg">
<path d="M19.9762 17.2237C26.5113 17.2903 27.9497 27.0694 34.9372 24.2574C40.8267 21.8867 36.6938 11.2556 35.1037 7.76651C33.1861 3.55684 30.0874 2.10273 27.6269 2.07776C24.6854 2.04816 22.68 4.60301 20.1048 4.57711C17.5296 4.55121 15.576 1.95566 12.6354 1.92513C10.1749 1.90016 7.04654 3.29044 5.04392 7.46126C3.38354 10.9171 -0.963967 21.463 4.87649 23.9522C11.8047 26.9057 13.4411 17.1581 19.9762 17.2237V17.2237Z" stroke="#F7C845" stroke-width="2" stroke-linecap="round" stroke-linejoin="round"/>
<path d="M12.1996 14.7425C14.4188 14.7425 16.2178 12.9435 16.2178 10.7243C16.2178 8.50507 14.4188 6.70605 12.1996 6.70605C9.98041 6.70605 8.1814 8.50507 8.1814 10.7243C8.1814 12.9435 9.98041 14.7425 12.1996 14.7425Z" stroke="#F7C845" stroke-width="2" stroke-linecap="round" stroke-linejoin="round"/>
<path d="M26.4419 10.3692C27.2062 10.3692 27.8257 9.74962 27.8257 8.98536C27.8257 8.22111 27.2062 7.60156 26.4419 7.60156C25.6777 7.60156 25.0581 8.22111 25.0581 8.98536C25.0581 9.74962 25.6777 10.3692 26.4419 10.3692Z" stroke="#F7C845" stroke-width="2" stroke-linecap="round" stroke-linejoin="round"/>
<path d="M30.0551 14.0567C30.8193 14.0567 31.4389 13.4371 31.4389 12.6729C31.4389 11.9086 30.8193 11.2891 30.0551 11.2891C29.2908 11.2891 28.6713 11.9086 28.6713 12.6729C28.6713 13.4371 29.2908 14.0567 30.0551 14.0567Z" stroke="#F7C845" stroke-width="2" stroke-linecap="round" stroke-linejoin="round"/>
<path d="M12.1996 12.8763V8.57324M10.0481 10.7248H14.3512" stroke="#F7C845" stroke-width="2" stroke-linecap="round" stroke-linejoin="round"/>
<path d="M19.0512 16.2989C25.5863 16.3655 27.0247 26.1446 34.0121 23.3326C39.9016 20.9619 35.7687 10.3308 34.1786 6.84171C32.2611 2.63203 29.1623 1.17793 26.7018 1.15295C23.7603 1.12335 21.7549 3.67821 19.1797 3.65231C16.6045 3.62641 14.6509 1.03085 11.7104 1.00033C9.24985 0.975355 6.12149 2.36563 4.11887 6.53646C2.45849 9.99226 -1.88902 20.5382 3.95144 23.0274C10.8797 25.9809 12.516 16.2332 19.0512 16.2989V16.2989Z" stroke="black" stroke-linecap="round" stroke-linejoin="round"/>
<path d="M11.2746 13.8177C13.4937 13.8177 15.2928 12.0186 15.2928 9.79945C15.2928 7.58026 13.4937 5.78125 11.2746 5.78125C9.05536 5.78125 7.25635 7.58026 7.25635 9.79945C7.25635 12.0186 9.05536 13.8177 11.2746 13.8177Z" stroke="black" stroke-linecap="round" stroke-linejoin="round"/>
<path d="M25.517 9.44436C26.2812 9.44436 26.9008 8.82481 26.9008 8.06056C26.9008 7.29631 26.2812 6.67676 25.517 6.67676C24.7527 6.67676 24.1332 7.29631 24.1332 8.06056C24.1332 8.82481 24.7527 9.44436 25.517 9.44436Z" stroke="black" stroke-linecap="round" stroke-linejoin="round"/>
<path d="M29.13 13.1319C29.8943 13.1319 30.5138 12.5123 30.5138 11.7481C30.5138 10.9838 29.8943 10.3643 29.13 10.3643C28.3658 10.3643 27.7462 10.9838 27.7462 11.7481C27.7462 12.5123 28.3658 13.1319 29.13 13.1319Z" stroke="black" stroke-linecap="round" stroke-linejoin="round"/>
<path d="M11.2747 11.9515V7.64844M9.12317 9.79999H13.4263" stroke="black" stroke-linecap="round" stroke-linejoin="round"/>
</svg>
