<svg width="63" height="63" viewBox="0 0 63 63" fill="none" xmlns="http://www.w3.org/2000/svg">
<path d="M31.4335 60.6444C47.5295 60.6444 60.5779 47.5959 60.5779 31.4999C60.5779 15.4039 47.5295 2.35547 31.4335 2.35547C15.3375 2.35547 2.28906 15.4039 2.28906 31.4999C2.28906 47.5959 15.3375 60.6444 31.4335 60.6444Z" stroke="#F7C845" stroke-width="3" stroke-linecap="round" stroke-linejoin="round"/>
<path d="M24.5473 44.9732C26.0563 45.8138 27.7696 46.2175 29.4951 46.139H33.8329C35.7708 46.1318 37.6271 45.3579 38.9962 43.9863C40.3653 42.6147 41.1358 40.7569 41.1393 38.819V38.819C41.1393 36.8799 40.37 35.0201 39.0001 33.6477C37.6303 32.2754 35.7719 31.5026 33.8329 31.499H29.0342C27.0952 31.4954 25.2368 30.7226 23.867 29.3502C22.4971 27.9778 21.7278 26.118 21.7278 24.179C21.7278 22.2399 22.4971 20.3801 23.867 19.0077C25.2368 17.6354 27.0952 16.8626 29.0342 16.859H33.372C34.8772 16.8095 36.3741 17.1015 37.7504 17.713M31.4335 16.859V13.199M31.4335 49.799V46.139M10.8291 52.1034L52.038 10.8945" stroke="#F7C845" stroke-width="3" stroke-linecap="round" stroke-linejoin="round"/>
<path d="M30.1444 59.2889C46.2405 59.2889 59.2889 46.2405 59.2889 30.1444C59.2889 14.0484 46.2405 1 30.1444 1C14.0484 1 1 14.0484 1 30.1444C1 46.2405 14.0484 59.2889 30.1444 59.2889Z" stroke="black" stroke-width="2" stroke-linecap="round" stroke-linejoin="round"/>
<path d="M23.2583 43.6177C24.7672 44.4583 26.4805 44.862 28.206 44.7835H32.5438C34.4818 44.7763 36.3381 44.0024 37.7071 42.6308C39.0762 41.2592 39.8467 39.4014 39.8503 37.4635V37.4635C39.8503 35.5245 39.0809 33.6647 37.7111 32.2923C36.3412 30.9199 34.4829 30.1471 32.5438 30.1435H27.7452C25.8061 30.1399 23.9477 29.3671 22.5779 27.9947C21.2081 26.6224 20.4387 24.7625 20.4387 22.8235C20.4387 20.8845 21.2081 19.0246 22.5779 17.6523C23.9477 16.2799 25.8061 15.5071 27.7452 15.5035H32.0829C33.5882 15.4541 35.0851 15.746 36.4614 16.3575M30.1445 15.5035V11.8435M30.1445 48.4435V44.7835M9.54004 50.748L50.7489 9.53906" stroke="black" stroke-width="2" stroke-linecap="round" stroke-linejoin="round"/>
</svg>
