<svg width="30" height="44" viewBox="0 0 30 44" fill="none" xmlns="http://www.w3.org/2000/svg">
<path d="M15.1094 3C12.0594 3 9.13432 4.2116 6.97765 6.36827C4.82098 8.52494 3.60938 11.45 3.60938 14.5C3.60938 23.5 12.3894 34.33 14.6894 36.99C14.8129 37.1316 14.9875 37.2185 15.1749 37.2316C15.3624 37.2447 15.5474 37.183 15.6894 37.06L15.7594 36.99C18.0294 34.32 26.6094 23.5 26.6094 14.5C26.6094 11.45 25.3978 8.52494 23.2411 6.36827C21.0844 4.2116 18.1594 3 15.1094 3ZM15.1094 17.62C14.3376 17.62 13.5832 17.391 12.9416 16.962C12.3 16.533 11.8002 15.9234 11.5053 15.2101C11.2104 14.4969 11.1338 13.7123 11.2851 12.9555C11.4364 12.1987 11.8088 11.5038 12.3552 10.9587C12.9016 10.4137 13.5975 10.0431 14.3547 9.89372C15.1119 9.74437 15.8963 9.82303 16.6088 10.1197C17.3212 10.4165 17.9296 10.9179 18.357 11.5606C18.7843 12.2032 19.0114 12.9582 19.0094 13.73C19.0067 14.7626 18.5947 15.752 17.8636 16.4813C17.1325 17.2105 16.142 17.62 15.1094 17.62V17.62Z" stroke="#F7C845" stroke-width="3" stroke-linecap="round" stroke-linejoin="round"/>
<path d="M8 32.6299C4.4 33.5299 2 35.1099 2 36.8999C2 39.7199 7.85 41.9999 15.08 41.9999C22.31 41.9999 28.16 39.7199 28.16 36.8999C28.16 35.1299 25.85 33.5699 22.33 32.6599" stroke="#F7C845" stroke-width="3" stroke-linecap="round" stroke-linejoin="round"/>
<path d="M14.1094 1C11.0594 1 8.13432 2.2116 5.97765 4.36827C3.82098 6.52494 2.60938 9.45001 2.60938 12.5C2.60938 21.5 11.3894 32.33 13.6894 34.99C13.8129 35.1316 13.9875 35.2185 14.1749 35.2316C14.3624 35.2447 14.5474 35.183 14.6894 35.06L14.7594 34.99C17.0294 32.32 25.6094 21.5 25.6094 12.5C25.6094 9.45001 24.3978 6.52494 22.2411 4.36827C20.0844 2.2116 17.1594 1 14.1094 1ZM14.1094 15.62C13.3376 15.62 12.5832 15.391 11.9416 14.962C11.3 14.533 10.8002 13.9234 10.5053 13.2101C10.2104 12.4969 10.1338 11.7123 10.2851 10.9555C10.4364 10.1987 10.8088 9.50377 11.3552 8.95875C11.9016 8.41372 12.5975 8.04307 13.3547 7.89372C14.1119 7.74437 14.8963 7.82303 15.6088 8.11975C16.3212 8.41646 16.9296 8.91789 17.357 9.56056C17.7843 10.2032 18.0114 10.9582 18.0094 11.73C18.0067 12.7626 17.5947 13.752 16.8636 14.4813C16.1325 15.2105 15.142 15.62 14.1094 15.62V15.62Z" stroke="black" stroke-linecap="round" stroke-linejoin="round"/>
<path d="M7 30.6299C3.4 31.5299 1 33.1099 1 34.8999C1 37.7199 6.85 39.9999 14.08 39.9999C21.31 39.9999 27.16 37.7199 27.16 34.8999C27.16 33.1299 24.85 31.5699 21.33 30.6599" stroke="black" stroke-linecap="round" stroke-linejoin="round"/>
</svg>
