<svg width="42" height="41" viewBox="0 0 42 41" fill="none" xmlns="http://www.w3.org/2000/svg">
<path d="M38.2185 26.7743C36.1008 26.5129 33.998 26.1424 31.9185 25.6643C31.4108 25.4946 30.8679 25.4588 30.3424 25.5604C29.8168 25.662 29.3264 25.8976 28.9185 26.2443C28.3885 26.7843 26.8585 28.2943 25.2685 29.8543C19.5717 27.0538 14.9646 22.4432 12.1685 16.7443C13.7185 15.1543 15.1685 13.6343 15.7585 13.1043C16.1052 12.6964 16.3407 12.206 16.4423 11.6804C16.544 11.1548 16.5082 10.612 16.3385 10.1043C15.8597 8.02153 15.4892 5.91537 15.2285 3.79427C15.2006 3.52416 15.1179 3.26257 14.9856 3.02544C14.8533 2.78832 14.6741 2.58062 14.4589 2.41501C14.2437 2.2494 13.997 2.12935 13.7339 2.06217C13.4708 1.99499 13.1968 1.98209 12.9285 2.02427H4.40851C4.05683 2.05602 3.72762 2.21082 3.47885 2.46142C3.23007 2.71203 3.07769 3.04236 3.04851 3.39427C2.49851 11.0843 6.78851 19.3143 7.65851 20.8943V20.9543L7.77851 21.1843C10.8929 26.5857 15.3771 31.0699 20.7785 34.1843V34.1843L21.2185 34.4343C23.2185 35.4943 31.1685 39.4943 38.5985 38.9443C38.954 38.9196 39.2891 38.7692 39.5438 38.52C39.7984 38.2708 39.9561 37.9391 39.9885 37.5843V29.0743C40.0307 28.806 40.0178 28.532 39.9506 28.2689C39.8834 28.0058 39.7634 27.7591 39.5978 27.5439C39.4322 27.3287 39.2245 27.1495 38.9873 27.0172C38.7502 26.8848 38.4886 26.8022 38.2185 26.7743Z" stroke="#F7C845" stroke-width="3" stroke-linecap="round" stroke-linejoin="round"/>
<path d="M36.2185 25.7743C34.1008 25.5129 31.998 25.1424 29.9185 24.6643C29.4108 24.4946 28.8679 24.4588 28.3424 24.5604C27.8168 24.662 27.3264 24.8976 26.9185 25.2443C26.3885 25.7843 24.8585 27.2943 23.2685 28.8543C17.5717 26.0538 12.9646 21.4432 10.1685 15.7443C11.7185 14.1543 13.1685 12.6343 13.7585 12.1043C14.1052 11.6964 14.3407 11.206 14.4423 10.6804C14.544 10.1548 14.5082 9.61196 14.3385 9.10427C13.8597 7.02153 13.4892 4.91537 13.2285 2.79427C13.2006 2.52416 13.1179 2.26257 12.9856 2.02544C12.8533 1.78832 12.6741 1.58062 12.4589 1.41501C12.2437 1.2494 11.997 1.12935 11.7339 1.06217C11.4708 0.99499 11.1968 0.982094 10.9285 1.02427H2.40851C2.05683 1.05602 1.72762 1.21082 1.47885 1.46142C1.23007 1.71203 1.07769 2.04236 1.04851 2.39427C0.498512 10.0843 4.78851 18.3143 5.65851 19.8943V19.9543L5.77851 20.1843C8.89286 25.5857 13.3771 30.0699 18.7785 33.1843V33.1843L19.2185 33.4343C21.2185 34.4943 29.1685 38.4943 36.5985 37.9443C36.954 37.9196 37.2891 37.7692 37.5438 37.52C37.7984 37.2708 37.9561 36.9391 37.9885 36.5843V28.0743C38.0307 27.806 38.0178 27.532 37.9506 27.2689C37.8834 27.0058 37.7634 26.7591 37.5978 26.5439C37.4322 26.3287 37.2245 26.1495 36.9873 26.0172C36.7502 25.8848 36.4886 25.8022 36.2185 25.7743Z" stroke="black" stroke-linecap="round" stroke-linejoin="round"/>
</svg>
