<svg width="62" height="62" viewBox="0 0 62 62" fill="none" xmlns="http://www.w3.org/2000/svg">
<path d="M17.7432 47.1884V25.7812H44.3263M24.6746 47.1884H44.3263V32.9754" stroke="#F7C845" stroke-width="3" stroke-linecap="round" stroke-linejoin="round"/>
<path d="M24.6299 34.5328L30.2006 40.1035L37.4392 32.8663M25.4032 20.3615C25.4032 18.9012 25.9833 17.5007 27.0159 16.4682C28.0485 15.4356 29.4489 14.8555 30.9092 14.8555C32.3695 14.8555 33.77 15.4356 34.8026 16.4682C35.8352 17.5007 36.4153 18.9012 36.4153 20.3615M36.4153 20.3615V25.7813M25.4059 20.247V25.7813" stroke="#F7C845" stroke-width="3" stroke-linecap="round" stroke-linejoin="round"/>
<path d="M39.5062 58.7284C32.8029 60.7827 25.5822 60.3378 19.1818 57.4761C12.7813 54.6145 7.63498 49.5301 4.69605 43.1648C1.75712 36.7995 1.22482 29.5847 3.19776 22.857C5.1707 16.1293 9.51516 10.3447 15.4263 6.57473C21.3375 2.80476 28.4147 1.30499 35.3469 2.35324C42.2791 3.40149 48.5965 6.92672 53.1287 12.2759C57.6609 17.625 60.1008 24.4356 59.9964 31.4458C59.8919 38.456 57.2502 45.1909 52.5607 50.4026" stroke="#F7C845" stroke-width="3" stroke-linecap="round" stroke-linejoin="round"/>
<path d="M16.7168 46.1611V24.7539H43.3M23.6482 46.1611H43.3V31.948" stroke="black" stroke-width="2" stroke-linecap="round" stroke-linejoin="round"/>
<path d="M23.6035 33.5055L29.1742 39.0762L36.4128 31.839M24.3768 19.3342C24.3768 17.8739 24.9569 16.4734 25.9895 15.4408C27.0221 14.4082 28.4226 13.8281 29.8829 13.8281C31.3432 13.8281 32.7436 14.4082 33.7762 15.4408C34.8088 16.4734 35.3889 17.8739 35.3889 19.3342M35.3889 19.3342V24.754M24.3795 19.2197V24.754" stroke="black" stroke-width="2" stroke-linecap="round" stroke-linejoin="round"/>
<path d="M38.4798 57.7011C31.7765 59.7553 24.5558 59.3104 18.1554 56.4488C11.755 53.5872 6.60861 48.5028 3.66968 42.1375C0.730757 35.7722 0.198457 28.5574 2.1714 21.8297C4.14433 15.102 8.48879 9.31735 14.3999 5.54738C20.3111 1.77742 27.3883 0.277644 34.3205 1.3259C41.2527 2.37415 47.5701 5.89938 52.1023 11.2485C56.6345 16.5977 59.0744 23.4082 58.97 30.4185C58.8656 37.4287 56.2239 44.1635 51.5343 49.3753" stroke="black" stroke-width="2" stroke-linecap="round" stroke-linejoin="round"/>
</svg>
